<svg width="24" height="24" viewBox="0 0 24 24" fill="none" xmlns="http://www.w3.org/2000/svg">
<path d="M16.9999 13.8045C16.9999 13.4588 16.9999 13.286 17.0519 13.132C17.2031 12.6844 17.6017 12.5108 18.001 12.3289C18.4499 12.1244 18.6743 12.0222 18.8967 12.0042C19.1492 11.9838 19.4021 12.0382 19.6179 12.1593C19.904 12.3198 20.1035 12.6249 20.3078 12.873C21.2511 14.0188 21.7228 14.5918 21.8954 15.2236C22.0347 15.7334 22.0347 16.2666 21.8954 16.7764C21.6437 17.6979 20.8484 18.4704 20.2597 19.1854C19.9586 19.5511 19.808 19.734 19.6179 19.8407C19.4021 19.9618 19.1492 20.0162 18.8967 19.9958C18.6743 19.9778 18.4499 19.8756 18.001 19.6711C17.6017 19.4892 17.2031 19.3156 17.0519 18.868C16.9999 18.714 16.9999 18.5412 16.9999 18.1955V13.8045Z" stroke="white" stroke-width="1.5"/>
<path d="M9.49994 21C10.8806 22.3333 13.1192 22.3333 14.4999 21" stroke="white" stroke-width="1.5" stroke-linecap="round" stroke-linejoin="round"/>
<path d="M6.99994 13.8045C6.99994 13.3693 6.98772 12.9782 6.63585 12.6722C6.50787 12.5609 6.33819 12.4836 5.99885 12.329C5.54995 12.1246 5.3255 12.0224 5.1031 12.0044C4.43585 11.9504 4.07686 12.4058 3.69207 12.8731C2.74869 14.0189 2.277 14.5918 2.1044 15.2236C1.96512 15.7334 1.96512 16.2666 2.1044 16.7764C2.35614 17.6979 3.15146 18.4702 3.74015 19.1852C4.11123 19.6359 4.46571 20.0472 5.1031 19.9956C5.3255 19.9776 5.54995 19.8754 5.99885 19.6709C6.33819 19.5164 6.50787 19.4391 6.63585 19.3278C6.98772 19.0218 6.99994 18.6307 6.99994 18.1954V13.8045Z" stroke="white" stroke-width="1.5"/>
<path d="M1.99994 16V12C1.99994 6.47715 6.47709 2 11.9999 2C17.5227 2 21.9999 6.47715 21.9999 12L22 16" stroke="white" stroke-width="1.5" stroke-linecap="round" stroke-linejoin="round"/>
</svg>
