<svg width="24" height="25" viewBox="0 0 24 25" fill="none" xmlns="http://www.w3.org/2000/svg">
<path d="M15.0001 17.5C14.2006 18.1224 13.1503 18.5 12.0001 18.5C10.8498 18.5 9.79965 18.1224 9.00012 17.5" stroke="white" stroke-width="1.5" stroke-linecap="round"/>
<path d="M2.35151 13.7135C1.99849 11.4162 1.82198 10.2676 2.25629 9.24938C2.69059 8.23112 3.65415 7.53443 5.58126 6.14106L7.02111 5.1C9.41841 3.36667 10.617 2.5 12.0001 2.5C13.3831 2.5 14.5818 3.36667 16.9791 5.1L18.4189 6.14106C20.3461 7.53443 21.3096 8.23112 21.7439 9.24938C22.1782 10.2676 22.0017 11.4162 21.6487 13.7135L21.3477 15.6724C20.8472 18.9289 20.597 20.5572 19.4291 21.5286C18.2612 22.5 16.5537 22.5 13.1389 22.5H10.8613C7.44646 22.5 5.73903 22.5 4.57112 21.5286C3.40321 20.5572 3.15299 18.9289 2.65255 15.6724L2.35151 13.7135Z" stroke="white" stroke-width="1.5" stroke-linejoin="round"/>
</svg>
