<svg width="143" height="40" viewBox="0 0 143 40" fill="none" xmlns="http://www.w3.org/2000/svg">
<g clip-path="url(#clip0_52_29)">
<path fill-rule="evenodd" clip-rule="evenodd" d="M8.55273 3.59787C7.12207 4.59823 5.82837 5.78098 4.70532 7.1124C9.29462 6.68633 15.1252 7.38205 21.8944 10.7667C29.123 14.3809 34.9438 14.5031 38.9948 13.7217C38.6272 12.6088 38.1644 11.5392 37.6163 10.5224C32.979 11.0115 27.034 10.3641 20.1056 6.89998C15.706 4.70018 11.8278 3.79401 8.55273 3.59787ZM34.9074 6.66665C31.2453 2.575 25.9234 0 20 0C18.2605 0 16.5727 0.222107 14.9637 0.63948C17.1429 1.23409 19.4579 2.10399 21.8944 3.32227C26.967 5.85853 31.3464 6.67516 34.9074 6.66665ZM39.8609 17.6281C34.9669 18.5945 28.2088 18.396 20.1056 14.3444C12.53 10.5566 6.50043 10.6043 2.4339 11.508C2.224 11.5546 2.01904 11.6036 1.81903 11.6546C1.28662 12.8125 0.861634 14.0301 0.556702 15.2945C0.882386 15.2075 1.21893 15.1248 1.56616 15.0476C6.49957 13.9513 13.4701 13.9989 21.8944 18.2111C29.4701 21.9989 35.4996 21.9512 39.5662 21.0475C39.7055 21.0166 39.8428 20.9846 39.9778 20.9516C39.9926 20.6363 40 20.319 40 20C40 19.1975 39.9528 18.406 39.8609 17.6281ZM39.3248 25.1723C34.4783 26.0196 27.917 25.6944 20.1056 21.7888C12.53 18.001 6.50043 18.0487 2.4339 18.9524C1.53125 19.1529 0.719239 19.3972 0.00293 19.6551C0.000977 19.7698 0 19.8848 0 20C0 31.0457 8.95429 40 20 40C29.2571 40 37.0453 33.7109 39.3248 25.1723Z" fill="#FC5603"/>
<path d="M48.1179 24V15.082H52.8109C53.4176 15.082 53.9203 15.1947 54.3189 15.42C54.7263 15.6367 55.0296 15.9443 55.2289 16.343C55.4283 16.733 55.5279 17.1837 55.5279 17.695C55.5279 18.3103 55.3893 18.839 55.1119 19.281C54.8346 19.723 54.4533 20.0393 53.9679 20.23L55.8399 24H54.4879L52.7459 20.451H49.3529V24H48.1179ZM49.3529 19.398H52.6939C53.1879 19.398 53.5736 19.2463 53.8509 18.943C54.1369 18.6397 54.2799 18.2237 54.2799 17.695C54.2799 17.3657 54.2193 17.0883 54.0979 16.863C53.9766 16.6377 53.7989 16.4643 53.5649 16.343C53.3309 16.213 53.0406 16.148 52.6939 16.148H49.3529V19.398ZM60.0233 24.156C59.33 24.156 58.745 24.0303 58.2683 23.779C57.8003 23.519 57.4406 23.1247 57.1893 22.596C56.9466 22.0673 56.8253 21.3957 56.8253 20.581C56.8253 19.7577 56.9466 19.086 57.1893 18.566C57.4406 18.0373 57.8003 17.6473 58.2683 17.396C58.745 17.136 59.33 17.006 60.0233 17.006C60.7166 17.006 61.2973 17.136 61.7653 17.396C62.242 17.6473 62.6016 18.0373 62.8443 18.566C63.087 19.086 63.2083 19.7577 63.2083 20.581C63.2083 21.3957 63.087 22.0673 62.8443 22.596C62.6016 23.1247 62.242 23.519 61.7653 23.779C61.2973 24.0303 60.7166 24.156 60.0233 24.156ZM60.0233 23.194C60.4653 23.194 60.8336 23.1073 61.1283 22.934C61.423 22.7607 61.644 22.492 61.7913 22.128C61.9473 21.7553 62.0253 21.2873 62.0253 20.724V20.438C62.0253 19.866 61.9473 19.398 61.7913 19.034C61.644 18.67 61.423 18.4013 61.1283 18.228C60.8336 18.0547 60.4653 17.968 60.0233 17.968C59.5813 17.968 59.2086 18.0547 58.9053 18.228C58.6106 18.4013 58.3896 18.67 58.2423 19.034C58.095 19.398 58.0213 19.866 58.0213 20.438V20.724C58.0213 21.2873 58.095 21.7553 58.2423 22.128C58.3896 22.492 58.6106 22.7607 58.9053 22.934C59.2086 23.1073 59.5813 23.194 60.0233 23.194ZM66.7484 24.156C66.0897 24.156 65.561 23.987 65.1624 23.649C64.7637 23.311 64.5644 22.7217 64.5644 21.881V17.162H65.7084V21.725C65.7084 22.011 65.743 22.245 65.8124 22.427C65.8817 22.609 65.9814 22.752 66.1114 22.856C66.2414 22.96 66.393 23.0337 66.5664 23.077C66.7484 23.1203 66.9434 23.142 67.1514 23.142C67.4807 23.142 67.784 23.064 68.0614 22.908C68.3387 22.752 68.564 22.5267 68.7374 22.232C68.9194 21.9287 69.0104 21.5777 69.0104 21.179V17.162H70.1544V24H69.2314L69.1274 22.973H69.0364C68.8544 23.2503 68.6464 23.4757 68.4124 23.649C68.187 23.8223 67.9314 23.948 67.6454 24.026C67.368 24.1127 67.069 24.156 66.7484 24.156ZM73.5282 24.156C73.1728 24.156 72.8955 24.091 72.6962 23.961C72.4968 23.8223 72.3538 23.6447 72.2672 23.428C72.1805 23.2027 72.1372 22.9643 72.1372 22.713V18.124H71.2532V17.162H72.1632L72.3712 15.251H73.2812V17.162H74.5682V18.124H73.2812V22.544C73.2812 22.7607 73.3202 22.9253 73.3982 23.038C73.4762 23.142 73.6235 23.194 73.8402 23.194H74.5682V23.948C74.4815 23.9913 74.3775 24.026 74.2562 24.052C74.1348 24.078 74.0092 24.0997 73.8792 24.117C73.7578 24.143 73.6408 24.156 73.5282 24.156ZM78.5185 24.156C77.8425 24.156 77.2705 24.0303 76.8025 23.779C76.3432 23.519 75.9922 23.1247 75.7495 22.596C75.5155 22.0673 75.3985 21.3957 75.3985 20.581C75.3985 19.7577 75.5155 19.086 75.7495 18.566C75.9922 18.0373 76.3475 17.6473 76.8155 17.396C77.2835 17.136 77.8685 17.006 78.5705 17.006C79.2119 17.006 79.7492 17.1317 80.1825 17.383C80.6159 17.6257 80.9409 17.994 81.1575 18.488C81.3829 18.9733 81.4955 19.5843 81.4955 20.321V20.867H76.5815C76.5989 21.413 76.6769 21.8637 76.8155 22.219C76.9629 22.5657 77.1795 22.8213 77.4655 22.986C77.7515 23.142 78.1112 23.22 78.5445 23.22C78.8392 23.22 79.0949 23.1853 79.3115 23.116C79.5369 23.038 79.7232 22.9297 79.8705 22.791C80.0265 22.6523 80.1435 22.4877 80.2215 22.297C80.2995 22.1063 80.3429 21.8983 80.3515 21.673H81.4695C81.4609 22.037 81.3915 22.375 81.2615 22.687C81.1315 22.9903 80.9409 23.2503 80.6895 23.467C80.4382 23.6837 80.1305 23.8527 79.7665 23.974C79.4025 24.0953 78.9865 24.156 78.5185 24.156ZM76.6075 20.009H80.3125C80.3125 19.6277 80.2692 19.307 80.1825 19.047C80.0959 18.787 79.9702 18.5747 79.8055 18.41C79.6495 18.2453 79.4632 18.1283 79.2465 18.059C79.0385 17.981 78.8002 17.942 78.5315 17.942C78.1329 17.942 77.7949 18.0157 77.5175 18.163C77.2402 18.3103 77.0279 18.5357 76.8805 18.839C76.7332 19.1423 76.6422 19.5323 76.6075 20.009ZM83.1316 24V15.082H85.0426L87.0706 20.867C87.1226 21.023 87.1746 21.1963 87.2266 21.387C87.2873 21.569 87.3393 21.7423 87.3826 21.907C87.4346 22.0717 87.4736 22.2147 87.4996 22.336H87.5906C87.6166 22.206 87.6513 22.0587 87.6946 21.894C87.7379 21.7207 87.7856 21.543 87.8376 21.361C87.8896 21.179 87.9373 21.0143 87.9806 20.867L90.0086 15.082H91.9066V24H90.6716V18.774C90.6716 18.5053 90.6759 18.215 90.6846 17.903C90.6933 17.5823 90.7019 17.292 90.7106 17.032C90.7193 16.7633 90.7236 16.5727 90.7236 16.46H90.6196C90.5936 16.5727 90.5503 16.733 90.4896 16.941C90.4289 17.1403 90.3639 17.3527 90.2946 17.578C90.2339 17.7947 90.1776 17.9897 90.1256 18.163L88.0326 24H86.9666L84.8736 18.163C84.8216 18.0157 84.7653 17.8467 84.7046 17.656C84.6526 17.4567 84.5963 17.253 84.5356 17.045C84.4836 16.837 84.4316 16.642 84.3796 16.46H84.2886C84.2973 16.6507 84.3016 16.889 84.3016 17.175C84.3103 17.4523 84.3146 17.734 84.3146 18.02C84.3233 18.2973 84.3276 18.5487 84.3276 18.774V24H83.1316ZM95.6334 24.156C95.3821 24.156 95.1308 24.1257 94.8794 24.065C94.6281 24.0043 94.3941 23.9047 94.1774 23.766C93.9608 23.6273 93.7874 23.4367 93.6574 23.194C93.5274 22.9427 93.4624 22.6307 93.4624 22.258C93.4624 21.79 93.5751 21.4043 93.8004 21.101C94.0258 20.7977 94.3378 20.5637 94.7364 20.399C95.1438 20.2257 95.6248 20.1087 96.1794 20.048C96.7341 19.9787 97.3364 19.944 97.9864 19.944V19.164C97.9864 18.9127 97.9431 18.696 97.8564 18.514C97.7698 18.332 97.6138 18.1933 97.3884 18.098C97.1718 17.994 96.8598 17.942 96.4524 17.942C96.0624 17.942 95.7504 17.994 95.5164 18.098C95.2911 18.1933 95.1308 18.319 95.0354 18.475C94.9488 18.631 94.9054 18.8043 94.9054 18.995V19.19H93.8004C93.7918 19.1467 93.7874 19.1033 93.7874 19.06C93.7874 19.0167 93.7874 18.9647 93.7874 18.904C93.7874 18.488 93.9001 18.1413 94.1254 17.864C94.3594 17.578 94.6844 17.3657 95.1004 17.227C95.5164 17.0797 95.9931 17.006 96.5304 17.006C97.1024 17.006 97.5791 17.0883 97.9604 17.253C98.3504 17.4177 98.6408 17.6517 98.8314 17.955C99.0308 18.2583 99.1304 18.6223 99.1304 19.047V22.752C99.1304 22.9167 99.1694 23.0337 99.2474 23.103C99.3254 23.1637 99.4208 23.194 99.5334 23.194H100.04V23.948C99.9191 24 99.7848 24.0433 99.6374 24.078C99.4901 24.1213 99.3211 24.143 99.1304 24.143C98.9051 24.143 98.7188 24.0953 98.5714 24C98.4241 23.9133 98.3114 23.792 98.2334 23.636C98.1554 23.4713 98.1034 23.2893 98.0774 23.09H97.9864C97.8304 23.3067 97.6311 23.4973 97.3884 23.662C97.1544 23.818 96.8901 23.9393 96.5954 24.026C96.3008 24.1127 95.9801 24.156 95.6334 24.156ZM95.9194 23.194C96.1968 23.194 96.4568 23.1507 96.6994 23.064C96.9508 22.9773 97.1718 22.856 97.3624 22.7C97.5531 22.5353 97.7048 22.3403 97.8174 22.115C97.9301 21.8897 97.9864 21.6427 97.9864 21.374V20.802C97.2844 20.802 96.6864 20.841 96.1924 20.919C95.6984 20.997 95.3171 21.1357 95.0484 21.335C94.7884 21.5343 94.6584 21.816 94.6584 22.18C94.6584 22.414 94.7104 22.6047 94.8144 22.752C94.9184 22.8993 95.0658 23.012 95.2564 23.09C95.4471 23.1593 95.6681 23.194 95.9194 23.194ZM103.393 24.156C102.925 24.156 102.514 24.1083 102.158 24.013C101.803 23.9177 101.508 23.779 101.274 23.597C101.04 23.415 100.863 23.1983 100.741 22.947C100.62 22.6957 100.559 22.4097 100.559 22.089C100.559 22.0457 100.559 22.0067 100.559 21.972C100.559 21.9287 100.564 21.894 100.572 21.868H101.703C101.695 21.9027 101.69 21.933 101.69 21.959C101.69 21.985 101.69 22.011 101.69 22.037C101.699 22.3403 101.777 22.5787 101.924 22.752C102.08 22.9253 102.293 23.0467 102.561 23.116C102.83 23.1853 103.129 23.22 103.458 23.22C103.744 23.22 104.009 23.1853 104.251 23.116C104.494 23.038 104.685 22.9253 104.823 22.778C104.971 22.622 105.044 22.427 105.044 22.193C105.044 21.907 104.949 21.6903 104.758 21.543C104.576 21.387 104.334 21.2657 104.03 21.179C103.727 21.0923 103.411 21.0013 103.081 20.906C102.804 20.828 102.527 20.7413 102.249 20.646C101.972 20.5507 101.721 20.4337 101.495 20.295C101.279 20.1563 101.101 19.9787 100.962 19.762C100.832 19.5367 100.767 19.255 100.767 18.917C100.767 18.6137 100.828 18.345 100.949 18.111C101.079 17.877 101.261 17.6777 101.495 17.513C101.729 17.3483 102.011 17.227 102.34 17.149C102.678 17.0623 103.051 17.019 103.458 17.019C103.892 17.019 104.269 17.0667 104.589 17.162C104.919 17.2573 105.192 17.3917 105.408 17.565C105.625 17.7383 105.785 17.9377 105.889 18.163C105.993 18.3797 106.045 18.6137 106.045 18.865C106.045 18.917 106.045 18.969 106.045 19.021C106.045 19.0643 106.041 19.099 106.032 19.125H104.914V18.982C104.914 18.8087 104.867 18.644 104.771 18.488C104.685 18.3233 104.529 18.1933 104.303 18.098C104.087 17.994 103.783 17.942 103.393 17.942C103.142 17.942 102.925 17.9637 102.743 18.007C102.561 18.0417 102.41 18.1023 102.288 18.189C102.167 18.267 102.076 18.3623 102.015 18.475C101.955 18.579 101.924 18.7003 101.924 18.839C101.924 19.0643 101.998 19.2377 102.145 19.359C102.293 19.4803 102.488 19.58 102.73 19.658C102.982 19.736 103.25 19.8227 103.536 19.918C103.84 20.0047 104.147 20.0957 104.459 20.191C104.78 20.2777 105.07 20.3903 105.33 20.529C105.599 20.6677 105.811 20.8583 105.967 21.101C106.132 21.335 106.214 21.647 106.214 22.037C106.214 22.401 106.145 22.7173 106.006 22.986C105.868 23.2547 105.668 23.4757 105.408 23.649C105.157 23.8223 104.858 23.948 104.511 24.026C104.173 24.1127 103.801 24.156 103.393 24.156ZM109.227 24.156C108.872 24.156 108.595 24.091 108.395 23.961C108.196 23.8223 108.053 23.6447 107.966 23.428C107.88 23.2027 107.836 22.9643 107.836 22.713V18.124H106.952V17.162H107.862L108.07 15.251H108.98V17.162H110.267V18.124H108.98V22.544C108.98 22.7607 109.019 22.9253 109.097 23.038C109.175 23.142 109.323 23.194 109.539 23.194H110.267V23.948C110.181 23.9913 110.077 24.026 109.955 24.052C109.834 24.078 109.708 24.0997 109.578 24.117C109.457 24.143 109.34 24.156 109.227 24.156ZM114.218 24.156C113.542 24.156 112.97 24.0303 112.502 23.779C112.042 23.519 111.691 23.1247 111.449 22.596C111.215 22.0673 111.098 21.3957 111.098 20.581C111.098 19.7577 111.215 19.086 111.449 18.566C111.691 18.0373 112.047 17.6473 112.515 17.396C112.983 17.136 113.568 17.006 114.27 17.006C114.911 17.006 115.448 17.1317 115.882 17.383C116.315 17.6257 116.64 17.994 116.857 18.488C117.082 18.9733 117.195 19.5843 117.195 20.321V20.867H112.281C112.298 21.413 112.376 21.8637 112.515 22.219C112.662 22.5657 112.879 22.8213 113.165 22.986C113.451 23.142 113.81 23.22 114.244 23.22C114.538 23.22 114.794 23.1853 115.011 23.116C115.236 23.038 115.422 22.9297 115.57 22.791C115.726 22.6523 115.843 22.4877 115.921 22.297C115.999 22.1063 116.042 21.8983 116.051 21.673H117.169C117.16 22.037 117.091 22.375 116.961 22.687C116.831 22.9903 116.64 23.2503 116.389 23.467C116.137 23.6837 115.83 23.8527 115.466 23.974C115.102 24.0953 114.686 24.156 114.218 24.156ZM112.307 20.009H116.012C116.012 19.6277 115.968 19.307 115.882 19.047C115.795 18.787 115.669 18.5747 115.505 18.41C115.349 18.2453 115.162 18.1283 114.946 18.059C114.738 17.981 114.499 17.942 114.231 17.942C113.832 17.942 113.494 18.0157 113.217 18.163C112.939 18.3103 112.727 18.5357 112.58 18.839C112.432 19.1423 112.341 19.5323 112.307 20.009ZM118.61 24V17.162H119.533L119.637 18.293H119.728C119.797 18.0763 119.892 17.8727 120.014 17.682C120.135 17.4827 120.3 17.3223 120.508 17.201C120.716 17.071 120.971 17.006 121.275 17.006C121.405 17.006 121.522 17.019 121.626 17.045C121.738 17.0623 121.821 17.084 121.873 17.11V18.163H121.444C121.149 18.163 120.893 18.215 120.677 18.319C120.469 18.4143 120.295 18.553 120.157 18.735C120.018 18.917 119.914 19.1337 119.845 19.385C119.784 19.6363 119.754 19.905 119.754 20.191V24H118.61ZM123.147 24V15.082H127.554C128.17 15.082 128.681 15.199 129.088 15.433C129.496 15.6583 129.799 15.9747 129.998 16.382C130.206 16.7893 130.31 17.2617 130.31 17.799C130.31 18.345 130.198 18.8303 129.972 19.255C129.747 19.671 129.426 19.996 129.01 20.23C128.603 20.464 128.113 20.581 127.541 20.581H124.382V24H123.147ZM124.382 19.515H127.463C127.949 19.515 128.334 19.3633 128.62 19.06C128.915 18.7567 129.062 18.3407 129.062 17.812C129.062 17.4567 129.002 17.1577 128.88 16.915C128.759 16.6723 128.581 16.486 128.347 16.356C128.113 16.2173 127.819 16.148 127.463 16.148H124.382V19.515ZM131.572 24V17.162H132.495L132.599 18.293H132.69C132.759 18.0763 132.854 17.8727 132.976 17.682C133.097 17.4827 133.262 17.3223 133.47 17.201C133.678 17.071 133.933 17.006 134.237 17.006C134.367 17.006 134.484 17.019 134.588 17.045C134.7 17.0623 134.783 17.084 134.835 17.11V18.163H134.406C134.111 18.163 133.855 18.215 133.639 18.319C133.431 18.4143 133.257 18.553 133.119 18.735C132.98 18.917 132.876 19.1337 132.807 19.385C132.746 19.6363 132.716 19.905 132.716 20.191V24H131.572ZM138.569 24.156C137.876 24.156 137.291 24.0303 136.814 23.779C136.346 23.519 135.987 23.1247 135.735 22.596C135.493 22.0673 135.371 21.3957 135.371 20.581C135.371 19.7577 135.493 19.086 135.735 18.566C135.987 18.0373 136.346 17.6473 136.814 17.396C137.291 17.136 137.876 17.006 138.569 17.006C139.263 17.006 139.843 17.136 140.311 17.396C140.788 17.6473 141.148 18.0373 141.39 18.566C141.633 19.086 141.754 19.7577 141.754 20.581C141.754 21.3957 141.633 22.0673 141.39 22.596C141.148 23.1247 140.788 23.519 140.311 23.779C139.843 24.0303 139.263 24.156 138.569 24.156ZM138.569 23.194C139.011 23.194 139.38 23.1073 139.674 22.934C139.969 22.7607 140.19 22.492 140.337 22.128C140.493 21.7553 140.571 21.2873 140.571 20.724V20.438C140.571 19.866 140.493 19.398 140.337 19.034C140.19 18.67 139.969 18.4013 139.674 18.228C139.38 18.0547 139.011 17.968 138.569 17.968C138.127 17.968 137.755 18.0547 137.451 18.228C137.157 18.4013 136.936 18.67 136.788 19.034C136.641 19.398 136.567 19.866 136.567 20.438V20.724C136.567 21.2873 136.641 21.7553 136.788 22.128C136.936 22.492 137.157 22.7607 137.451 22.934C137.755 23.1073 138.127 23.194 138.569 23.194Z" fill="white"/>
</g>
<defs>
<clipPath id="clip0_52_29">
<rect width="143" height="40" fill="white"/>
</clipPath>
</defs>
</svg>
