<svg width="40" height="40" viewBox="0 0 40 40" fill="none" xmlns="http://www.w3.org/2000/svg">
<path d="M30 3.33325C33.6078 3.33325 36.6666 6.35799 36.6666 10.0276C36.6666 13.7556 33.558 16.3718 30.6866 18.1508C30.4773 18.2704 30.2408 18.3333 30 18.3333C29.7591 18.3333 29.5226 18.2704 29.3133 18.1508C26.4473 16.3544 23.3333 13.7685 23.3333 10.0276C23.3333 6.35799 26.3921 3.33325 30 3.33325Z" stroke="white" stroke-width="1.5"/>
<path d="M30 10H30.009" stroke="white" stroke-width="2" stroke-linecap="round" stroke-linejoin="round"/>
<path d="M8.33331 36.6667C11.0947 36.6667 13.3333 34.4282 13.3333 31.6667C13.3333 28.9053 11.0947 26.6667 8.33331 26.6667C5.57189 26.6667 3.33331 28.9053 3.33331 31.6667C3.33331 34.4282 5.57189 36.6667 8.33331 36.6667Z" stroke="white" stroke-width="1.5" stroke-linecap="round" stroke-linejoin="round"/>
<path d="M18.3333 11.6667H15.8333C12.6117 11.6667 10 13.9053 10 16.6667C10 19.4282 12.6117 21.6667 15.8333 21.6667H20.8333C24.055 21.6667 26.6667 23.9052 26.6667 26.6667C26.6667 29.4282 24.055 31.6667 20.8333 31.6667H18.3333" stroke="white" stroke-width="1.5" stroke-linecap="round" stroke-linejoin="round"/>
</svg>
